<?xml version="1.0" encoding="utf-8"?>
<!DOCTYPE svg PUBLIC "-//W3C//DTD SVG 1.1//EN" "http://www.w3.org/Graphics/SVG/1.1/DTD/svg11.dtd">
<svg version="1.1" id="Layer_1" xmlns="http://www.w3.org/2000/svg" xmlns:xlink="http://www.w3.org/1999/xlink" x="0px" y="0px"
	 width="96px" height="96px" viewBox="0 0 96 96" enable-background="new 0 0 96 96" xml:space="preserve">
<path fill="#CDBFE3" d="M46.668,34.935c-1.4,0.417-2.59,1.225-3.656,2.481c-0.845,0.995-1.373,2.012-1.614,3.021
	c-0.106,0.443-0.188,0.976-0.249,1.588c1.348-0.52,2.721-1.034,4.115-1.542c3.087-1.124,6.112-2.149,9.044-3.079
	c-0.061-0.155-0.123-0.307-0.189-0.447c-0.534-1.113-1.536-2.386-4.348-2.386C48.485,34.571,47.431,34.693,46.668,34.935z"/>
<path fill="#563D7C" d="M32.25,27.25h7.5v3.423c1.281-1.356,2.968-2.36,4.361-3.033c2.172-1.048,4.252-1.516,6.747-1.516
	c5.574,0,9.416,2.02,11.42,6.003c1.019,2.009,1.473,4.813,1.473,9.091v7.596l-0.445,0.198c-1.998,0.887-3.996,1.789-5.994,2.697
	l-1.061,0.482V41.641c0-2.092-0.338-3.851-1.004-5.229c-0.985-2.053-2.837-3.093-5.503-3.093c-1.411,0-2.576,0.142-3.462,0.422
	c-1.613,0.48-2.989,1.416-4.217,2.864c-0.962,1.133-1.596,2.324-1.886,3.539c-0.288,1.205-0.428,3.005-0.428,5.504v12.236
	l-0.515,0.17c-2.009,0.664-4.041,1.277-6.038,1.821l-0.947,0.258V27.25z"/>
<path fill="#563D7C" d="M56.25,65.75v-3.437l0.452-0.195c1.914-0.828,3.925-1.742,5.976-2.717l1.072-0.509v6.857H56.25z"/>
<path fill="#CDBFE3" d="M89.348,32.951c-1.56-4.281-8.568-6.068-18.348-5.435V31h-7.872c0.106,0.186,0.214,0.371,0.312,0.566
	c0.435,0.856,0.746,1.839,0.981,2.926c13.28-3.407,22.935-4.085,23.985-1.199c1.511,4.152-15.355,14.102-37.672,22.225
	c-22.314,8.123-41.63,11.34-43.142,7.189C6.427,59.502,16.214,52.843,31,46.236V38.92C14.708,46.847,4.342,56.699,6.653,63.049
	c2.833,7.784,23.642,7.357,46.477-0.953C75.966,53.784,92.18,40.736,89.348,32.951z"/>
<path fill="#563D7C" d="M62.1,29.98l0.014-0.513c0.021-0.781,0.191-1.506,0.509-2.155c0.308-0.729,1.007-1.485,2.127-2.287
	c1.082-0.774,1.507-1.145,1.673-1.319c0.315-0.337,0.47-0.691,0.47-1.078c0-0.302-0.076-0.539-0.231-0.726
	c-0.085-0.101-0.242-0.237-0.614-0.237c-0.51,0-0.675,0.204-0.762,0.382c-0.062,0.129-0.143,0.413-0.169,1.02l-0.021,0.478h-2.891
	l0.019-0.519c0.034-0.912,0.207-1.671,0.514-2.257c0.613-1.162,1.694-1.751,3.215-1.751c1.175,0,2.133,0.339,2.848,1.007
	c0.722,0.678,1.088,1.577,1.088,2.672c0,0.842-0.255,1.602-0.758,2.259c-0.322,0.421-0.821,0.869-1.526,1.369L66.82,26.88
	c-0.205,0.146-0.382,0.274-0.53,0.384h3.61v2.716H62.1z"/>
</svg>
